<svg id="Group_170" data-name="Group 170" xmlns="http://www.w3.org/2000/svg" xmlns:xlink="http://www.w3.org/1999/xlink" width="22" height="20" viewBox="0 0 22 20">
  <defs>
    <clipPath id="clip-path">
      <rect id="Rectangle_89" data-name="Rectangle 89" width="22" height="20" fill="#fff"/>
    </clipPath>
  </defs>
  <g id="Group_158" data-name="Group 158" transform="translate(0 0)" clip-path="url(#clip-path)">
    <path id="Path_1481" data-name="Path 1481" d="M21.436,9.768a1.9,1.9,0,0,0-1.423-.194,1.909,1.909,0,0,0-1.171.889,1.9,1.9,0,0,0,.34,2.328,1.913,1.913,0,0,0,.355.266,1.9,1.9,0,0,0,2.594-2.593,1.919,1.919,0,0,0-.7-.7" transform="translate(-5.691 -2.913)" fill="#fff"/>
    <path id="Path_1482" data-name="Path 1482" d="M20.135,1.864a6.364,6.364,0,0,0-9,0c-.046.046-.077.1-.121.148L11,2l-.014.013c-.044-.047-.075-.1-.121-.148a6.365,6.365,0,1,0-9,9c.046.046.1.077.148.121L2,11l9,9,9-9-.013-.014c.046-.044.1-.074.148-.121a6.364,6.364,0,0,0,0-9M8.271,4.828a1.77,1.77,0,0,1,.06,2.317,1.393,1.393,0,0,0-.218-.163.071.071,0,0,1-.035-.052,3,3,0,0,1,.029-1.023,2.357,2.357,0,0,0-.191.977c-.022.027-.113-.02-.187-.032s-.1.012-.14,0a.079.079,0,0,1-.042-.041c-.4-.905.724-1.978.724-1.978M8.119,7.382a1.66,1.66,0,0,1-2.057.179,1.711,1.711,0,0,1,2.2-.335,2.929,2.929,0,0,0-1.377.164,4.747,4.747,0,0,1,1.238-.008M18.3,9.2h-.75c-.022.083-.046.165-.074.245a2.849,2.849,0,0,1-3.634,1.736c-.041-.014-.08-.028-.119-.045a2.824,2.824,0,0,1-.829-.518h0a2.848,2.848,0,0,1-.593-.744,2.662,2.662,0,0,1-.194-.429,2.846,2.846,0,0,1-.162-.949.947.947,0,0,0-.831-.941.91.91,0,0,0-.235,0,.948.948,0,0,0-.831.941,2.829,2.829,0,0,1-.162.949,2.662,2.662,0,0,1-.194.429,2.8,2.8,0,0,1-.369.52,2.724,2.724,0,0,1-.223.224,2.837,2.837,0,0,1-.83.518c-.04.017-.079.031-.119.045a2.846,2.846,0,0,1-2.848-.563,2.724,2.724,0,0,1-.223-.224,2.828,2.828,0,0,1-.563-.949c-.028-.08-.053-.162-.074-.245H3.694V7.795h.751c.021-.083.046-.165.074-.245A2.835,2.835,0,0,1,5.082,6.6a2.96,2.96,0,0,1,.223-.224A2.845,2.845,0,0,1,7.2,5.652L6.7,6.67a1.9,1.9,0,0,0-.442.185,1.919,1.919,0,0,0-.7.7,1.9,1.9,0,1,0,3.289,0c-.012-.02-.028-.037-.041-.056l.466-.944c.017.017.036.033.052.051a2.831,2.831,0,0,1,.369.52,1.941,1.941,0,0,1,.356-.266,1.913,1.913,0,0,1,.475-.194h0a1.895,1.895,0,0,1,1.422.194,1.941,1.941,0,0,1,.356.266,2.865,2.865,0,0,1,.369-.52,3.1,3.1,0,0,1,.224-.224h0a2.822,2.822,0,0,1,.829-.517c.04-.017.078-.032.119-.045a2.848,2.848,0,0,1,2.847.562,3.1,3.1,0,0,1,.224.224,2.846,2.846,0,0,1,.563.949c.028.08.053.162.074.245h.75Z" transform="translate(0 0)" fill="#fff"/>
  </g>
</svg>
